<svg xmlns="http://www.w3.org/2000/svg" version="1.1" xmlnsXlink="http://www.w3.org/1999/xlink" xmlnsSvgjs="http://svgjs.dev/svgjs" width="200" height="50" viewBox="0 0 1000 133"><g transform="matrix(1,0,0,1,-0.6060606060606233,0.31693980801347266)"><svg viewBox="0 0 396 53" data-background-color="#282634" preserveAspectRatio="xMidYMid meet" height="133" width="1000" xmlns="http://www.w3.org/2000/svg" xmlnsXlink="http://www.w3.org/1999/xlink"><g id="tight-bounds" transform="matrix(1,0,0,1,0.2400000000000091,-0.12629932199033078)"><svg viewBox="0 0 395.52 53.25259864398068" height="53.25259864398068" width="395.52"><g><svg viewBox="0 0 513.1605811067838 69.09166278719522" height="53.25259864398068" width="395.52"><g><rect width="5.836271081880139" height="69.09166278719522" x="96.52611347547926" y="0" fill="#ffffff" opacity="1" stroke-width="0" stroke="transparent" fill-opacity="1" class="rect-o-0" data-fill-palette-color="primary" rx="1%" id="o-0" data-palette-color="#ffffff"></rect></g><g transform="matrix(1,0,0,1,117.64058110678386,0.1718698079283456)"><svg viewBox="0 0 395.5199999999999 68.74792317133853" height="68.74792317133853" width="395.5199999999999"><g><svg viewBox="0 0 395.5199999999999 68.74792317133853" height="68.74792317133853" width="395.5199999999999"><g><svg viewBox="0 0 395.5199999999999 68.74792317133853" height="68.74792317133853" width="395.5199999999999"><g transform="matrix(1,0,0,1,0,0)"><svg width="395.5199999999999" viewBox="3.1999988555908203 -37.5 294.3800048828125 48.16999816894531" height="68.74792317133853" data-palette-color="#ffffff"><svg></svg><g class="undefined-text-0" data-fill-palette-color="primary" id="text-0"><path xmlns="http://www.w3.org/2000/svg" d="M10.06-13.28h5.2l6.69 13.28h7.35v-0.32l-7.64-14.67c0.973-0.44 1.853-0.96 2.64-1.56 0.793-0.607 1.473-1.317 2.04-2.13v0c0.553-0.793 0.98-1.7 1.28-2.72 0.307-1.013 0.46-2.157 0.46-3.43v0c0-1.76-0.307-3.307-0.92-4.64-0.607-1.333-1.473-2.447-2.6-3.34v0c-1.14-0.9-2.507-1.58-4.1-2.04-1.593-0.467-3.377-0.7-5.35-0.7v0h-11.91v35.55h6.86zM15.14-18.85h-5.08v-11.13h5.05c0.947 0 1.787 0.113 2.52 0.34 0.733 0.227 1.35 0.553 1.85 0.98v0c0.573 0.473 1 1.07 1.28 1.79 0.287 0.727 0.43 1.56 0.43 2.5v0c0 0.787-0.11 1.497-0.33 2.13-0.22 0.633-0.54 1.177-0.96 1.63v0c-0.507 0.573-1.163 1.01-1.97 1.31-0.807 0.3-1.737 0.45-2.79 0.45zM49.95 0v0h6.89v-0.42c-0.347-0.667-0.61-1.463-0.79-2.39-0.173-0.927-0.26-2.097-0.26-3.51v0-11.33c0-1.533-0.287-2.88-0.86-4.04-0.567-1.167-1.357-2.13-2.37-2.89v0c-1.007-0.767-2.197-1.347-3.57-1.74-1.38-0.387-2.867-0.58-4.46-0.58v0c-1.773 0-3.347 0.223-4.72 0.67-1.38 0.447-2.54 1.053-3.48 1.82v0c-0.96 0.76-1.69 1.647-2.19 2.66-0.493 1.007-0.74 2.073-0.74 3.2v0h6.79c0-0.473 0.067-0.907 0.2-1.3 0.14-0.387 0.357-0.72 0.65-1v0c0.327-0.307 0.75-0.547 1.27-0.72 0.52-0.173 1.14-0.26 1.86-0.26v0c0.813 0 1.523 0.103 2.13 0.31 0.613 0.2 1.123 0.49 1.53 0.87v0c0.387 0.353 0.68 0.78 0.88 1.28 0.193 0.493 0.29 1.05 0.29 1.67v0 1.56h-3.79c-1.947 0-3.673 0.177-5.18 0.53-1.507 0.347-2.773 0.853-3.8 1.52v0c-1.14 0.733-1.993 1.667-2.56 2.8-0.573 1.133-0.86 2.43-0.86 3.89v0c0 1.14 0.23 2.193 0.69 3.16 0.453 0.973 1.087 1.81 1.9 2.51v0c0.813 0.7 1.787 1.243 2.92 1.63 1.127 0.393 2.367 0.59 3.72 0.59v0c0.833 0 1.607-0.077 2.32-0.23 0.713-0.16 1.373-0.377 1.98-0.65v0c0.587-0.26 1.123-0.57 1.61-0.93 0.487-0.36 0.917-0.743 1.29-1.15v0c0.087 0.473 0.187 0.923 0.3 1.35 0.113 0.42 0.25 0.793 0.41 1.12zM43.48-4.76v0c-0.633 0-1.19-0.077-1.67-0.23-0.48-0.153-0.883-0.363-1.21-0.63v0c-0.327-0.273-0.573-0.61-0.74-1.01-0.173-0.4-0.26-0.833-0.26-1.3v0c0-0.607 0.113-1.167 0.34-1.68 0.227-0.513 0.577-0.957 1.05-1.33v0c0.473-0.353 1.083-0.633 1.83-0.84 0.753-0.2 1.657-0.3 2.71-0.3v0h3.47v4.54c-0.193 0.34-0.463 0.677-0.81 1.01-0.34 0.333-0.747 0.63-1.22 0.89v0c-0.473 0.26-1 0.473-1.58 0.64-0.587 0.16-1.223 0.24-1.91 0.24zM75.9-26.42v-6.47h-6.78v6.47h-6.03v5.01h6.03v12.01c0 1.74 0.227 3.233 0.68 4.48 0.453 1.247 1.103 2.267 1.95 3.06v0c0.833 0.82 1.84 1.42 3.02 1.8 1.18 0.38 2.493 0.57 3.94 0.57v0c0.747 0 1.507-0.037 2.28-0.11 0.773-0.073 1.52-0.173 2.24-0.3v0c0.713-0.133 1.387-0.3 2.02-0.5 0.64-0.207 1.193-0.447 1.66-0.72v0l-0.66-4.67c-0.307 0.087-0.677 0.17-1.11 0.25-0.427 0.08-0.887 0.153-1.38 0.22v0c-0.5 0.08-1.023 0.143-1.57 0.19-0.547 0.053-1.08 0.08-1.6 0.08v0c-0.713 0-1.36-0.083-1.94-0.25-0.58-0.16-1.073-0.437-1.48-0.83v0c-0.407-0.373-0.72-0.88-0.94-1.52-0.22-0.647-0.33-1.45-0.33-2.41v0-11.35h9.87v-5.01zM106.27 0.49v0c2.56 0 4.777-0.497 6.65-1.49 1.867-0.993 3.233-2.1 4.1-3.32v0l-3.4-3.66c-0.78 1.007-1.797 1.763-3.05 2.27-1.253 0.5-2.547 0.75-3.88 0.75v0c-0.947 0-1.817-0.147-2.61-0.44-0.8-0.287-1.51-0.7-2.13-1.24v0c-0.6-0.52-1.08-1.103-1.44-1.75-0.353-0.64-0.647-1.49-0.88-2.55v0-0.07h17.92v-2.88c0-1.94-0.267-3.71-0.8-5.31-0.54-1.607-1.323-2.98-2.35-4.12v0c-1.04-1.133-2.303-2.013-3.79-2.64-1.493-0.627-3.19-0.94-5.09-0.94v0c-1.84 0-3.54 0.333-5.1 1-1.567 0.667-2.92 1.6-4.06 2.8v0c-1.14 1.207-2.027 2.643-2.66 4.31-0.633 1.673-0.95 3.517-0.95 5.53v0 0.98c0 1.773 0.32 3.437 0.96 4.99 0.647 1.553 1.563 2.9 2.75 4.04v0c1.187 1.16 2.61 2.073 4.27 2.74 1.66 0.667 3.507 1 5.54 1zM105.47-21.41v0c0.86 0 1.62 0.133 2.28 0.4 0.66 0.267 1.217 0.63 1.67 1.09v0c0.46 0.473 0.82 1.027 1.08 1.66 0.26 0.633 0.39 1.307 0.39 2.02v0 0.54h-11.13c0.16-0.86 0.403-1.64 0.73-2.34 0.327-0.7 0.733-1.303 1.22-1.81v0c0.473-0.507 1.027-0.893 1.66-1.16 0.633-0.267 1.333-0.4 2.1-0.4zM135.01-22.19l-3.37-13.36h-8.52v35.55h6.3v-10.52l-0.29-15.97 4.17 14.77h3.39l4.67-15.43-0.3 16.63v10.52h6.3v-35.55h-8.52zM157.64 10.67v0c1.367 0 2.55-0.227 3.55-0.68 1.007-0.46 1.86-1.023 2.56-1.69v0c0.693-0.667 1.273-1.39 1.74-2.17 0.467-0.78 0.847-1.503 1.14-2.17v0l13.4-30.38h-7.5l-6.03 15.53-1 2.64-0.73-2.69-6.05-15.48h-7.43l11.19 25.3-1.57 2.9c-0.193 0.36-0.36 0.637-0.5 0.83-0.133 0.2-0.347 0.493-0.64 0.88v0c-0.293 0.393-0.65 0.757-1.07 1.09-0.413 0.333-0.887 0.5-1.42 0.5v0c-0.267 0-0.613-0.013-1.04-0.04-0.433-0.027-0.787-0.04-1.06-0.04v0l-0.83 5.18c0.58 0.16 1.11 0.283 1.59 0.37 0.487 0.08 1.053 0.12 1.7 0.12zM207.91-11.13v0h-6.86c-0.067 1.073-0.247 1.993-0.54 2.76-0.293 0.76-0.69 1.387-1.19 1.88v0c-0.507 0.487-1.117 0.843-1.83 1.07-0.72 0.227-1.527 0.34-2.42 0.34v0c-0.667 0-1.273-0.077-1.82-0.23-0.547-0.153-1.04-0.393-1.48-0.72v0c-0.407-0.293-0.767-0.66-1.08-1.1-0.32-0.44-0.593-0.943-0.82-1.51v0c-0.327-0.833-0.567-1.807-0.72-2.92-0.153-1.113-0.23-2.38-0.23-3.8v0-4.83c0-1.04 0.047-2.013 0.14-2.92 0.1-0.9 0.257-1.727 0.47-2.48v0c0.273-0.96 0.643-1.8 1.11-2.52 0.46-0.727 1.023-1.287 1.69-1.68v0c0.393-0.227 0.823-0.397 1.29-0.51 0.46-0.113 0.96-0.17 1.5-0.17v0c1.007 0 1.873 0.133 2.6 0.4 0.72 0.273 1.327 0.67 1.82 1.19v0c0.467 0.533 0.827 1.2 1.08 2 0.253 0.8 0.413 1.727 0.48 2.78v0h6.83c-0.16-1.853-0.55-3.52-1.17-5-0.62-1.48-1.467-2.733-2.54-3.76v0c-1.073-1.027-2.37-1.817-3.89-2.37-1.52-0.553-3.257-0.83-5.21-0.83v0c-1.32 0-2.553 0.167-3.7 0.5-1.147 0.333-2.2 0.81-3.16 1.43v0c-1.073 0.733-2.033 1.627-2.88 2.68-0.847 1.06-1.53 2.267-2.05 3.62v0c-0.46 1.107-0.803 2.307-1.03 3.6-0.227 1.293-0.34 2.657-0.34 4.09v0 4.78c0 1.533 0.127 2.983 0.38 4.35 0.247 1.367 0.607 2.62 1.08 3.76v0c0.493 1.14 1.093 2.18 1.8 3.12 0.707 0.947 1.517 1.753 2.43 2.42v0c0.993 0.72 2.11 1.27 3.35 1.65 1.247 0.38 2.603 0.57 4.07 0.57v0c1.853 0 3.547-0.273 5.08-0.82 1.527-0.54 2.843-1.317 3.95-2.33v0c1.107-1.007 1.99-2.227 2.65-3.66 0.66-1.433 1.047-3.043 1.16-4.83zM212.55-13.45v0 0.51c0 1.94 0.277 3.727 0.83 5.36 0.553 1.633 1.367 3.053 2.44 4.26v0c1.06 1.207 2.367 2.147 3.92 2.82 1.553 0.673 3.323 1.01 5.31 1.01v0c1.967 0 3.723-0.337 5.27-1.01 1.547-0.673 2.85-1.613 3.91-2.82v0c1.06-1.207 1.867-2.627 2.42-4.26 0.553-1.633 0.83-3.42 0.83-5.36v0-0.51c0-1.92-0.277-3.7-0.83-5.34-0.553-1.633-1.36-3.053-2.42-4.26v0c-1.073-1.2-2.383-2.143-3.93-2.83-1.547-0.68-3.313-1.02-5.3-1.02v0c-1.987 0-3.75 0.34-5.29 1.02-1.533 0.687-2.83 1.63-3.89 2.83v0c-1.073 1.207-1.887 2.627-2.44 4.26-0.553 1.64-0.83 3.42-0.83 5.34zM219.34-12.94v0-0.51c0-1.073 0.103-2.09 0.31-3.05 0.213-0.96 0.547-1.807 1-2.54v0c0.46-0.733 1.047-1.313 1.76-1.74 0.72-0.42 1.583-0.63 2.59-0.63v0c1.027 0 1.897 0.21 2.61 0.63 0.72 0.427 1.307 1.007 1.76 1.74v0c0.44 0.733 0.767 1.58 0.98 2.54 0.207 0.96 0.31 1.977 0.31 3.05v0 0.51c0 1.107-0.103 2.143-0.31 3.11-0.213 0.973-0.54 1.817-0.98 2.53v0c-0.453 0.733-1.04 1.31-1.76 1.73-0.713 0.427-1.567 0.64-2.56 0.64v0c-1.027 0-1.903-0.213-2.63-0.64-0.72-0.42-1.31-0.997-1.77-1.73v0c-0.453-0.713-0.787-1.557-1-2.53-0.207-0.967-0.31-2.003-0.31-3.11zM242.77-13.4v0 0.51c0 1.92 0.237 3.697 0.71 5.33 0.473 1.64 1.157 3.053 2.05 4.24v0c0.88 1.187 1.96 2.12 3.24 2.8 1.273 0.673 2.717 1.01 4.33 1.01v0c1.48 0 2.783-0.287 3.91-0.86 1.12-0.567 2.097-1.363 2.93-2.39v0l0.34 2.76h6.13v-37.5h-6.82v13.45c-0.813-0.913-1.743-1.617-2.79-2.11-1.053-0.493-2.27-0.74-3.65-0.74v0c-1.647 0-3.107 0.323-4.38 0.97-1.28 0.653-2.367 1.573-3.26 2.76v0c-0.893 1.187-1.573 2.61-2.04 4.27-0.467 1.66-0.7 3.493-0.7 5.5zM249.56-12.89v0-0.51c0-1.107 0.097-2.147 0.29-3.12 0.2-0.967 0.51-1.817 0.93-2.55v0c0.427-0.713 0.977-1.277 1.65-1.69 0.673-0.42 1.49-0.63 2.45-0.63v0c1.16 0 2.12 0.25 2.88 0.75 0.767 0.493 1.377 1.19 1.83 2.09v0 10.69c-0.453 0.88-1.067 1.57-1.84 2.07-0.773 0.507-1.747 0.76-2.92 0.76v0c-0.96 0-1.773-0.203-2.44-0.61-0.667-0.407-1.21-0.967-1.63-1.68v0c-0.427-0.7-0.733-1.527-0.92-2.48-0.187-0.953-0.28-1.983-0.28-3.09zM286.3 0.49v0c2.56 0 4.773-0.497 6.64-1.49 1.873-0.993 3.243-2.1 4.11-3.32v0l-3.4-3.66c-0.78 1.007-1.797 1.763-3.05 2.27-1.253 0.5-2.547 0.75-3.88 0.75v0c-0.947 0-1.817-0.147-2.61-0.44-0.8-0.287-1.51-0.7-2.13-1.24v0c-0.6-0.52-1.08-1.103-1.44-1.75-0.36-0.64-0.653-1.49-0.88-2.55v0-0.07h17.92v-2.88c0-1.94-0.267-3.71-0.8-5.31-0.54-1.607-1.323-2.98-2.35-4.12v0c-1.04-1.133-2.303-2.013-3.79-2.64-1.493-0.627-3.19-0.94-5.09-0.94v0c-1.84 0-3.543 0.333-5.11 1-1.56 0.667-2.91 1.6-4.05 2.8v0c-1.14 1.207-2.027 2.643-2.66 4.31-0.633 1.673-0.95 3.517-0.95 5.53v0 0.98c0 1.773 0.32 3.437 0.96 4.99 0.647 1.553 1.563 2.9 2.75 4.04v0c1.187 1.16 2.61 2.073 4.27 2.74 1.66 0.667 3.507 1 5.54 1zM285.5-21.41v0c0.86 0 1.62 0.133 2.28 0.4 0.66 0.267 1.217 0.63 1.67 1.09v0c0.46 0.473 0.82 1.027 1.08 1.66 0.26 0.633 0.39 1.307 0.39 2.02v0 0.54h-11.13c0.16-0.86 0.403-1.64 0.73-2.34 0.327-0.7 0.733-1.303 1.22-1.81v0c0.473-0.507 1.027-0.893 1.66-1.16 0.633-0.267 1.333-0.4 2.1-0.4z" fill="#ffffff" fill-rule="nonzero" stroke="none" stroke-width="1" stroke-linecap="butt" stroke-linejoin="miter" stroke-miterlimit="10" stroke-dasharray="" stroke-dashoffset="0" font-family="none" font-weight="none" font-size="none" text-anchor="none" style="mix-blend-mode: normal" data-fill-palette-color="primary" opacity="1"></path></g></svg></g></svg></g></svg></g></svg></g><g transform="matrix(1,0,0,1,0,0.1718698079283456)"><svg viewBox="0 0 81.24791692605481 68.74792317133853" height="68.74792317133853" width="81.24791692605481"><g><svg xmlns="http://www.w3.org/2000/svg" xmlns:xlink="http://www.w3.org/1999/xlink" version="1.1" x="0" y="0" viewBox="0 13.42199993133545 100 84.61499786376953" enable-background="new 0 0 100 100" xmlSpace="preserve" height="68.74792317133853" width="81.24791692605481" class="icon-icon-0" data-fill-palette-color="accent" id="icon-0"><g fill="#ff851b" data-fill-palette-color="accent"><path d="M0 13.422v84.615h100V13.422H0zM92.308 90.346H7.692V28.807h84.615V90.346z" fill="#ff851b" data-fill-palette-color="accent"></path><rect x="42.002" y="66.065" width="26.488" height="7.775" fill="#ff851b" data-fill-palette-color="accent"></rect><polygon points="15.521,66.064 41.988,55.549 41.988,55.527 42.002,55.533 42.002,47.181 41.988,47.187 41.988,47.165    15.521,36.65 15.515,45.014 31.487,51.357 15.515,57.701  " fill="#ff851b" data-fill-palette-color="accent"></polygon></g></svg></g></svg></g></svg></g><defs></defs></svg><rect width="395.52" height="53.25259864398068" fill="none" stroke="none" visibility="hidden"></rect></g></svg></g></svg>